# xmcd
# 
# Track frame offsets:
#     150
#     23456
#     46479
#     68185
#     78958
#     92027
#     110527
#     140431
#     162573
# 
# Disc length: 2391
# 
# Revision: 2
# Processed by: cddbd v1.5.2PL0 Copyright (c) Steve Scherf et al.
# Submitted via: fre:ac v1.0.17
# 
DISCID=6f095509
DTITLE=Calvin Jones - Through High Places
DYEAR=0
DGENRE=Instrumental
TTITLE0=Sunrise In The Rockies
TTITLE1=Highland Cascades
TTITLE2=Londonderry Falls
TTITLE3=Brown Eyes
TTITLE4=Whitewater Chopped Sticks
TTITLE5=Again
TTITLE6=Snowmelt
TTITLE7=Mountain Memories
TTITLE8=Sunset
EXTD=
EXTT0=
EXTT1=
EXTT2=
EXTT3=
EXTT4=
EXTT5=
EXTT6=
EXTT7=
EXTT8=
PLAYORDER=
